<svg width="33" height="32" viewBox="0 0 33 32" fill="none" xmlns="http://www.w3.org/2000/svg">
<path d="M9.83333 4.68748C11.7401 3.41111 14.0332 2.66675 16.5 2.66675C21.9708 2.66675 26.5865 6.32771 28.0309 11.3334" stroke="#638C2D" stroke-width="2" stroke-linecap="round" stroke-linejoin="round"/>
<path d="M28.5 29.3334V18.6667" stroke="#638C2D" stroke-width="2" stroke-linecap="round" stroke-linejoin="round"/>
<path d="M4.5 29.3334V14.6667C4.5 13.2642 4.74061 11.9179 5.18283 10.6667" stroke="#638C2D" stroke-width="2" stroke-linecap="round" stroke-linejoin="round"/>
<path d="M24.5 29.3334V15.0667C24.5 10.4276 20.9183 6.66675 16.5 6.66675C12.0817 6.66675 8.5 10.4276 8.5 15.0667V18.6667" stroke="#638C2D" stroke-width="2" stroke-linecap="round" stroke-linejoin="round"/>
<path d="M8.5 29.3333V24" stroke="#638C2D" stroke-width="2" stroke-linecap="round" stroke-linejoin="round"/>
<path d="M12.5 29.3334V14.8667C12.5 12.5471 14.2908 10.6667 16.5 10.6667C17.6537 10.6667 18.6933 11.1796 19.4235 12.0001" stroke="#638C2D" stroke-width="2" stroke-linecap="round" stroke-linejoin="round"/>
<path d="M20.5 29.3334V18.6667" stroke="#638C2D" stroke-width="2" stroke-linecap="round" stroke-linejoin="round"/>
<path d="M16.5 29.3334V24.6667" stroke="#638C2D" stroke-width="2" stroke-linecap="round" stroke-linejoin="round"/>
<path d="M16.5 14.6667V18.6667" stroke="#638C2D" stroke-width="2" stroke-linecap="round" stroke-linejoin="round"/>
</svg>
