<svg width="61" height="60" viewBox="0 0 61 60" fill="none" xmlns="http://www.w3.org/2000/svg">
<path d="M53.907 23.3304C60.1915 34.2153 56.462 48.1339 45.577 54.4183C34.6921 60.7028 20.7735 56.9733 14.4891 46.0884C8.20466 35.2034 6.24463 11.4304 17.1296 5.14592C28.0146 -1.13852 47.6226 12.4454 53.907 23.3304Z" fill="#638C2D" fill-opacity="0.15"/>
<path d="M19.4153 10.228C28.2697 1.30747 42.6791 1.25383 51.5997 10.1082C60.5202 18.9626 60.5739 33.3721 51.7195 42.2926C42.8651 51.2132 20.4395 59.3428 11.5189 50.4885C2.59838 41.6341 10.5609 19.1486 19.4153 10.228Z" fill="#638C2D" fill-opacity="0.15"/>
<path d="M24.3333 18.6875C26.2401 17.4111 28.5332 16.6667 31 16.6667C36.4708 16.6667 41.0865 20.3277 42.5309 25.3334" stroke="#638C2D" stroke-width="2" stroke-linecap="round" stroke-linejoin="round"/>
<path d="M43 43.3334V32.6667" stroke="#638C2D" stroke-width="2" stroke-linecap="round" stroke-linejoin="round"/>
<path d="M19 43.3334V28.6667C19 27.2642 19.2406 25.9179 19.6828 24.6667" stroke="#638C2D" stroke-width="2" stroke-linecap="round" stroke-linejoin="round"/>
<path d="M39 43.3334V29.0667C39 24.4276 35.4183 20.6667 31 20.6667C26.5817 20.6667 23 24.4276 23 29.0667V32.6667" stroke="#638C2D" stroke-width="2" stroke-linecap="round" stroke-linejoin="round"/>
<path d="M23 43.3333V38" stroke="#638C2D" stroke-width="2" stroke-linecap="round" stroke-linejoin="round"/>
<path d="M27 43.3334V28.8667C27 26.5471 28.7908 24.6667 31 24.6667C32.1537 24.6667 33.1933 25.1796 33.9235 26.0001" stroke="#638C2D" stroke-width="2" stroke-linecap="round" stroke-linejoin="round"/>
<path d="M35 43.3334V32.6667" stroke="#638C2D" stroke-width="2" stroke-linecap="round" stroke-linejoin="round"/>
<path d="M31 43.3334V38.6667" stroke="#638C2D" stroke-width="2" stroke-linecap="round" stroke-linejoin="round"/>
<path d="M31 28.6667V32.6667" stroke="#638C2D" stroke-width="2" stroke-linecap="round" stroke-linejoin="round"/>
</svg>
