<svg width="24" height="25" viewBox="0 0 24 25" fill="none" xmlns="http://www.w3.org/2000/svg">
<path d="M7 3.6259C8.4301 2.66862 10.1499 2.11035 12 2.11035C16.1031 2.11035 19.5649 4.85607 20.6482 8.61035" stroke="#4D4D4D" stroke-width="2" stroke-linecap="round" stroke-linejoin="round"/>
<path d="M21 22.1104V14.1104" stroke="#4D4D4D" stroke-width="2" stroke-linecap="round" stroke-linejoin="round"/>
<path d="M3 22.1104V11.1104C3 10.0584 3.18046 9.04869 3.51212 8.11035" stroke="#4D4D4D" stroke-width="2" stroke-linecap="round" stroke-linejoin="round"/>
<path d="M18 22.1104V11.4104C18 7.93096 15.3137 5.11035 12 5.11035C8.68629 5.11035 6 7.93096 6 11.4104V14.1104" stroke="#4D4D4D" stroke-width="2" stroke-linecap="round" stroke-linejoin="round"/>
<path d="M6 22.1104V18.1104" stroke="#4D4D4D" stroke-width="2" stroke-linecap="round" stroke-linejoin="round"/>
<path d="M9 22.1104V11.2604C9 9.52065 10.3431 8.11035 12 8.11035C12.8653 8.11035 13.645 8.49501 14.1926 9.11035" stroke="#4D4D4D" stroke-width="2" stroke-linecap="round" stroke-linejoin="round"/>
<path d="M15 22.1104V14.1104" stroke="#4D4D4D" stroke-width="2" stroke-linecap="round" stroke-linejoin="round"/>
<path d="M12 22.1104V18.6104" stroke="#4D4D4D" stroke-width="2" stroke-linecap="round" stroke-linejoin="round"/>
<path d="M12 11.1104V14.1104" stroke="#4D4D4D" stroke-width="2" stroke-linecap="round" stroke-linejoin="round"/>
</svg>
