<svg width="145" height="104" viewBox="0 0 145 104" fill="none" xmlns="http://www.w3.org/2000/svg">
<g clip-path="url(#clip0_1031_3179)">
<path d="M137.167 104.037H7.83332C5.77125 104.035 3.7943 103.215 2.3362 101.756C0.878089 100.298 0.0578946 98.3214 0.055542 96.2593V18.926C0.0578946 16.8639 0.878089 14.887 2.3362 13.4288C3.7943 11.9707 5.77125 11.1505 7.83332 11.1482H137.167C139.229 11.1505 141.206 11.9707 142.664 13.4288C144.122 14.887 144.942 16.8639 144.944 18.926V96.2593C144.942 98.3214 144.122 100.298 142.664 101.756C141.206 103.215 139.229 104.035 137.167 104.037ZM7.83332 12.4815C6.12475 12.4835 4.48672 13.1631 3.27858 14.3712C2.07044 15.5794 1.39084 17.2174 1.38888 18.926V96.2593C1.39084 97.9679 2.07044 99.6059 3.27858 100.814C4.48672 102.022 6.12475 102.702 7.83332 102.704H137.167C138.875 102.702 140.513 102.022 141.721 100.814C142.93 99.6059 143.609 97.9679 143.611 96.2593V18.926C143.609 17.2174 142.93 15.5794 141.721 14.3712C140.513 13.1631 138.875 12.4835 137.167 12.4815H7.83332Z" fill="#6A6A6A"/>
<path d="M25.1666 29.3704C24.0679 29.3704 22.9937 29.0446 22.0801 28.4341C21.1665 27.8237 20.4545 26.956 20.034 25.9408C19.6135 24.9257 19.5035 23.8087 19.7178 22.731C19.9322 21.6533 20.4613 20.6634 21.2383 19.8865C22.0152 19.1095 23.0051 18.5804 24.0828 18.366C25.1605 18.1517 26.2775 18.2617 27.2927 18.6822C28.3078 19.1027 29.1755 19.8147 29.7859 20.7283C30.3964 21.6419 30.7222 22.716 30.7222 23.8148C30.7205 25.2877 30.1347 26.6999 29.0932 27.7414C28.0517 28.7829 26.6396 29.3687 25.1666 29.3704ZM25.1666 19.5926C24.3316 19.5926 23.5152 19.8402 22.8209 20.3042C22.1266 20.7681 21.5854 21.4275 21.2658 22.1991C20.9463 22.9706 20.8626 23.8195 21.0255 24.6385C21.1885 25.4576 21.5906 26.2099 22.1811 26.8004C22.7716 27.3909 23.5239 27.793 24.3429 27.9559C25.162 28.1188 26.0109 28.0352 26.7824 27.7157C27.5539 27.3961 28.2133 26.8549 28.6773 26.1606C29.1412 25.4662 29.3889 24.6499 29.3889 23.8148C29.3876 22.6954 28.9423 21.6222 28.1508 20.8307C27.3593 20.0391 26.2861 19.5939 25.1666 19.5926Z" fill="#6A6A6A"/>
<path d="M118.944 29.3704C117.846 29.3704 116.772 29.0446 115.858 28.4341C114.944 27.8237 114.232 26.956 113.812 25.9408C113.391 24.9257 113.281 23.8087 113.496 22.731C113.71 21.6533 114.239 20.6634 115.016 19.8865C115.793 19.1095 116.783 18.5804 117.861 18.366C118.938 18.1517 120.055 18.2617 121.07 18.6822C122.086 19.1027 122.953 19.8147 123.564 20.7283C124.174 21.6419 124.5 22.716 124.5 23.8148C124.498 25.2877 123.912 26.6999 122.871 27.7414C121.829 28.7829 120.417 29.3687 118.944 29.3704ZM118.944 19.5926C118.109 19.5926 117.293 19.8402 116.599 20.3042C115.904 20.7681 115.363 21.4275 115.044 22.1991C114.724 22.9706 114.64 23.8195 114.803 24.6385C114.966 25.4576 115.368 26.2099 115.959 26.8004C116.549 27.3909 117.302 27.793 118.121 27.9559C118.94 28.1188 119.789 28.0352 120.56 27.7157C121.332 27.3961 121.991 26.8549 122.455 26.1606C122.919 25.4662 123.167 24.6499 123.167 23.8148C123.165 22.6954 122.72 21.6222 121.929 20.8307C121.137 20.0391 120.064 19.5939 118.944 19.5926Z" fill="#6A6A6A"/>
<path d="M38.2778 63.1483H14.2778C13.2762 63.1471 12.316 62.7487 11.6078 62.0405C10.8996 61.3322 10.5012 60.372 10.5 59.3705V45.1483C10.5012 44.1467 10.8996 43.1865 11.6078 42.4783C12.316 41.7701 13.2762 41.3717 14.2778 41.3705H38.2778C39.2793 41.3717 40.2395 41.7701 40.9478 42.4783C41.656 43.1865 42.0544 44.1467 42.0556 45.1483V59.3705C42.0544 60.372 41.656 61.3322 40.9478 62.0405C40.2395 62.7487 39.2793 63.1471 38.2778 63.1483Z" fill="#ECECEC"/>
<path d="M84.5 63.1483H60.5C59.4984 63.1471 58.5382 62.7487 57.83 62.0405C57.1218 61.3322 56.7234 60.372 56.7222 59.3705V45.1483C56.7234 44.1467 57.1218 43.1865 57.83 42.4783C58.5382 41.7701 59.4984 41.3717 60.5 41.3705H84.5C85.5016 41.3717 86.4618 41.7701 87.17 42.4783C87.8782 43.1865 88.2766 44.1467 88.2778 45.1483V59.3705C88.2766 60.372 87.8782 61.3322 87.17 62.0405C86.4618 62.7487 85.5016 63.1471 84.5 63.1483Z" fill="#ECECEC"/>
<path d="M106.722 41.8149C105.838 41.8159 104.991 42.1674 104.366 42.7923C103.741 43.4172 103.39 44.2645 103.389 45.1483V59.3705C103.39 60.2543 103.741 61.1015 104.366 61.7265C104.991 62.3514 105.838 62.7029 106.722 62.7038H130.722C131.606 62.7029 132.453 62.3514 133.078 61.7265C133.703 61.1015 134.055 60.2543 134.056 59.3705V45.1483C134.055 44.2645 133.703 43.4172 133.078 42.7923C132.453 42.1674 131.606 41.8159 130.722 41.8149H106.722Z" fill="#ECECEC"/>
<path d="M38.5 91.5927H14.5C13.4984 91.5915 12.5382 91.1931 11.83 90.4849C11.1218 89.7767 10.7234 88.8165 10.7222 87.8149V73.5927C10.7234 72.5912 11.1218 71.631 11.83 70.9227C12.5382 70.2145 13.4984 69.8161 14.5 69.8149H38.5C39.5016 69.8161 40.4618 70.2145 41.17 70.9227C41.8782 71.631 42.2766 72.5912 42.2778 73.5927V87.8149C42.2766 88.8165 41.8782 89.7767 41.17 90.4849C40.4618 91.1931 39.5016 91.5915 38.5 91.5927Z" fill="#ECECEC"/>
<path d="M84.7222 91.5927H60.7222C59.7207 91.5915 58.7605 91.1931 58.0523 90.4849C57.344 89.7767 56.9456 88.8165 56.9445 87.8149V73.5927C56.9456 72.5912 57.344 71.631 58.0523 70.9227C58.7605 70.2145 59.7207 69.8161 60.7222 69.8149H84.7222C85.7238 69.8161 86.684 70.2145 87.3922 70.9227C88.1004 71.631 88.4988 72.5912 88.5 73.5927V87.8149C88.4988 88.8165 88.1004 89.7767 87.3922 90.4849C86.684 91.1931 85.7238 91.5915 84.7222 91.5927Z" fill="#ECECEC"/>
<path d="M130.944 91.5927H106.944C105.943 91.5915 104.983 91.1931 104.274 90.4849C103.566 89.7767 103.168 88.8165 103.167 87.8149V73.5927C103.168 72.5912 103.566 71.631 104.274 70.9227C104.983 70.2145 105.943 69.8161 106.944 69.8149H130.944C131.946 69.8161 132.906 70.2145 133.614 70.9227C134.323 71.631 134.721 72.5912 134.722 73.5927V87.8149C134.721 88.8165 134.323 89.7767 133.614 90.4849C132.906 91.1931 131.946 91.5915 130.944 91.5927Z" fill="#ECECEC"/>
<path d="M25.1666 25.3704C24.7542 25.3699 24.3589 25.2059 24.0672 24.9143C23.7756 24.6227 23.6116 24.2273 23.6111 23.8149V1.59266C23.6111 1.18011 23.775 0.78444 24.0667 0.492716C24.3584 0.200993 24.7541 0.0371094 25.1666 0.0371094C25.5792 0.0371094 25.9749 0.200993 26.2666 0.492716C26.5583 0.78444 26.7222 1.18011 26.7222 1.59266V23.8149C26.7217 24.2273 26.5576 24.6227 26.266 24.9143C25.9744 25.2059 25.579 25.3699 25.1666 25.3704Z" fill="#6A6A6A"/>
<path d="M118.944 25.3704C118.532 25.3699 118.137 25.2059 117.845 24.9143C117.553 24.6227 117.389 24.2273 117.389 23.8149V1.59266C117.389 1.18011 117.553 0.78444 117.844 0.492716C118.136 0.200993 118.532 0.0371094 118.944 0.0371094C119.357 0.0371094 119.753 0.200993 120.044 0.492716C120.336 0.78444 120.5 1.18011 120.5 1.59266V23.8149C120.499 24.2273 120.335 24.6227 120.044 24.9143C119.752 25.2059 119.357 25.3699 118.944 25.3704Z" fill="#6A6A6A"/>
<path d="M25.3705 58.0243C24.7161 58.0254 24.0792 57.8137 23.5556 57.4211L23.5232 57.3968L16.6873 52.1675C16.0479 51.6774 15.6294 50.9532 15.5239 50.1545C15.4184 49.3558 15.6345 48.5478 16.1247 47.9084C16.6149 47.269 17.339 46.8506 18.1378 46.745C18.9365 46.6395 19.7444 46.8557 20.3838 47.3458L24.8116 50.7412L35.2745 37.0911C35.5171 36.7747 35.8197 36.5091 36.1649 36.3096C36.5102 36.11 36.8914 35.9805 37.2867 35.9282C37.682 35.876 38.0838 35.9022 38.469 36.0052C38.8542 36.1083 39.2154 36.2862 39.5318 36.5288L39.5327 36.5295L39.4678 36.6196L39.5345 36.5295C40.1729 37.0202 40.5906 37.7441 40.6959 38.5424C40.8012 39.3407 40.5855 40.1482 40.0962 40.7877L27.7894 56.836C27.5047 57.2058 27.1386 57.505 26.7196 57.7104C26.3006 57.9159 25.8399 58.0221 25.3732 58.0207L25.3705 58.0243Z" fill="#B6DA86"/>
<path d="M72.9261 86.0243C72.2717 86.0254 71.6347 85.8137 71.1112 85.4211L71.0787 85.3968L64.2428 80.1675C63.6034 79.6774 63.185 78.9532 63.0795 78.1545C62.9739 77.3558 63.1901 76.5478 63.6803 75.9084C64.1704 75.269 64.8946 74.8506 65.6933 74.745C66.492 74.6395 67.3 74.8557 67.9394 75.3458L72.3671 78.7412L82.83 65.0911C83.0726 64.7747 83.3752 64.5091 83.7205 64.3096C84.0657 64.11 84.4469 63.9805 84.8422 63.9282C85.2376 63.876 85.6393 63.9022 86.0245 64.0052C86.4097 64.1083 86.7709 64.2862 87.0873 64.5288L87.0882 64.5295L87.0233 64.6196L87.09 64.5295C87.7285 65.0202 88.1462 65.7441 88.2515 66.5424C88.3568 67.3407 88.1411 68.1482 87.6517 68.7877L75.345 84.836C75.0603 85.2058 74.6942 85.505 74.2751 85.7104C73.8561 85.9159 73.3954 86.0221 72.9287 86.0207L72.9261 86.0243Z" fill="#B6DA86"/>
<path d="M117.815 58.0243C117.161 58.0254 116.524 57.8137 116 57.4211L115.968 57.3968L109.132 52.1675C108.492 51.6774 108.074 50.9532 107.968 50.1545C107.863 49.3558 108.079 48.5478 108.569 47.9084C109.059 47.269 109.783 46.8506 110.582 46.745C111.381 46.6395 112.189 46.8557 112.828 47.3458L117.256 50.7412L127.719 37.0911C127.962 36.7747 128.264 36.5091 128.609 36.3096C128.955 36.11 129.336 35.9805 129.731 35.9282C130.126 35.876 130.528 35.9022 130.913 36.0052C131.299 36.1083 131.66 36.2862 131.976 36.5288L131.977 36.5295L131.912 36.6196L131.979 36.5295C132.617 37.0202 133.035 37.7441 133.14 38.5424C133.246 39.3407 133.03 40.1482 132.541 40.7877L120.234 56.836C119.949 57.2058 119.583 57.505 119.164 57.7104C118.745 57.9159 118.284 58.0221 117.818 58.0207L117.815 58.0243Z" fill="#B6DA86"/>
</g>
<defs>
<clipPath id="clip0_1031_3179">
<rect width="144.889" height="104" fill="white" transform="translate(0.055542)"/>
</clipPath>
</defs>
</svg>
